# xmcd
#
# Track frame offsets:
#	150
#	11921
#	35051
#	49325
#	60963
#	76675
#	97213
#	114237
#	130204
#	144411
#	164122
#	178885
#
# Disc length: 2578 seconds
#
# Revision: 1
# Processed by: cddbd v1.5.2PL0 Copyright (c) Steve Scherf et al.
# Submitted via: audiograbber 1.83.01
#
DISCID=a70a100c
DTITLE=Cort Armstrong and Blue Rooster - My Heart Is Fixed
DYEAR=2001
DGENRE=Rag Blues
TTITLE0=I Just Can't Keep Livin' This Way
TTITLE1=Sad Lonesome Day
TTITLE2=Nine Pound Hammer
TTITLE3=Funky Butt
TTITLE4=West Coast Blues
TTITLE5=Stupid Blues
TTITLE6=My Heart is Fixed
TTITLE7=Rag Mama Rag
TTITLE8=Last Steam Engine Train
TTITLE9=I'm Just Here to Get My Baby Out of Jail
TTITLE10=Boats Up the River
TTITLE11=Piccolo Rag
EXTD=
EXTT0=
EXTT1=
EXTT2=
EXTT3=
EXTT4=
EXTT5=
EXTT6=
EXTT7=
EXTT8=
EXTT9=
EXTT10=
EXTT11=
PLAYORDER=
